<svg xmlns="http://www.w3.org/2000/svg" viewBox="0 0 52 52" fill="none">
  <rect width="52" height="52" rx="15" fill="#111827" />
  <path
    d="M9.4 39.8V19.6C9.4 14.7 13.1 11 18 11C22.9 11 26.6 14.7 26.6 19.6V39.8H21V20.4C21 18.1 19.6 16.6 17.6 16.6C15.5 16.6 14.1 18.1 14.1 20.4V39.8Z"
    fill="#E5E7EB"
  />
  <path
    d="M21.7 39.8V18.8C21.7 14.2 25.2 10.8 29.7 10.8C32.3 10.8 34.5 12 36 14.3C37.5 12 39.9 10.8 42.6 10.8C47.1 10.8 50.6 14.2 50.6 18.8V39.8H45.1V19.4C45.1 17.3 43.8 15.9 41.9 15.9C40 15.9 38.6 17.3 38.6 19.4V39.8H34V19.4C34 17.3 32.7 15.9 30.8 15.9C28.9 15.9 27.3 17.3 27.3 19.4V39.8Z"
    fill="#60A5FA"
  />
  <circle cx="18.1" cy="10.1" r="2" fill="#F59E0B" />
  <circle cx="42.2" cy="10.1" r="2" fill="#34D399" />
</svg>
