<svg xmlns="http://www.w3.org/2000/svg" viewBox="0 0 52 52" fill="none">
  <rect width="52" height="52" rx="15" fill="#111827" />
  <circle cx="26" cy="26" r="6" fill="#F8FAFC" />
  <circle cx="13" cy="13" r="4.5" fill="#60A5FA" />
  <circle cx="39" cy="13" r="4.5" fill="#F59E0B" />
  <circle cx="39" cy="39" r="4.5" fill="#34D399" />
  <path d="M16 16 23 23M36 16 29 23M36 36 29 29" stroke="#94A3B8" stroke-width="3.5" stroke-linecap="round" />
  <!-- Restored j-shaped arrow as a single solid chevron outline -->
  <path d="M28.4 26V33C28.4 36.4 26.8 39 23.7 40.8L20 42.9H17.2L15.4 44.8C15.1 45.1 14.7 45.1 14.4 44.9L10.8 42.1C10.4 41.8 10.4 41.2 10.8 40.9L14.4 38.1C14.7 37.9 15.1 37.9 15.4 38.2L17.2 40.1H19.2C22.2 40.1 24.4 38.1 24.4 35V26Z" fill="#E5E7EB" />
</svg>
