<svg xmlns="http://www.w3.org/2000/svg" viewBox="0 0 52 52" fill="none">
  <rect width="52" height="52" rx="15" fill="#111827" />
  <path
    d="M12.5 36V21.7C12.5 18.3 15.1 15.7 18.5 15.7C21.9 15.7 24.5 18.3 24.5 21.7V36H20.3V22.1C20.3 20.6 19.3 19.5 17.9 19.5C16.5 19.5 15.5 20.6 15.5 22.1V36Z"
    fill="#E5E7EB"
  />
  <path
    d="M22.8 36V21.2C22.8 18.1 25.3 15.7 28.4 15.7C30.2 15.7 31.9 16.6 33 18.2C34.1 16.6 35.8 15.7 37.7 15.7C40.8 15.7 43.3 18.1 43.3 21.2V36H39.2V21.6C39.2 20.2 38.2 19.2 36.9 19.2C35.6 19.2 34.7 20.2 34.7 21.6V36H31.3V21.6C31.3 20.2 30.3 19.2 29.1 19.2C27.8 19.2 26.8 20.2 26.8 21.6V36Z"
    fill="#60A5FA"
  />
  <circle cx="18.2" cy="14.3" r="2" fill="#F59E0B" />
  <circle cx="37.7" cy="14.3" r="2" fill="#34D399" />
</svg>
