<svg xmlns="http://www.w3.org/2000/svg" viewBox="0 0 512 512" role="img" aria-label="middleman">
  <rect width="512" height="512" rx="104" fill="#20272d"/>
  <g transform="translate(256 256) scale(1.153) translate(-256 -256)">
    <path
      d="M186 120c-42 0-44 32-44 63v34c0 23-20 35-42 39 22 4 42 16 42 39v34c0 31 2 63 44 63"
      fill="none"
      stroke="#f7fbff"
      stroke-width="34"
      stroke-linecap="round"
      stroke-linejoin="round"
    />
    <path
      d="M326 120c42 0 44 32 44 63v34c0 23 20 35 42 39-22 4-42 16-42 39v34c0 31-2 63-44 63"
      fill="none"
      stroke="#f7fbff"
      stroke-width="34"
      stroke-linecap="round"
      stroke-linejoin="round"
    />
    <path d="M220 192h72" stroke="#4cc46c" stroke-linecap="round" stroke-width="24"/>
    <path d="M220 256h72" stroke="#f3b13f" stroke-linecap="round" stroke-width="24"/>
    <path d="M220 320h72" stroke="#e34b3f" stroke-linecap="round" stroke-width="24"/>
  </g>
</svg>
